<svg width="347" height="347" viewBox="0 0 347 347" fill="none" xmlns="http://www.w3.org/2000/svg">
<circle cx="173.5" cy="173.5" r="173.5" fill="#D9D9D9"/>
<path d="M197.5 110C197.5 105 199.25 100.75 202.75 97.25C206.25 93.75 210.5 92 215.5 92C220.5 92 224.75 93.75 228.25 97.25C231.75 100.75 233.5 105 233.5 110C233.5 115 231.75 119.25 228.25 122.75C224.75 126.25 220.5 128 215.5 128C210.5 128 206.25 126.25 202.75 122.75C199.25 119.25 197.5 115 197.5 110ZM240.5 110C240.5 105 242.25 100.75 245.75 97.25C249.25 93.75 253.5 92 258.5 92C263.5 92 267.75 93.75 271.25 97.25C274.75 100.75 276.5 105 276.5 110C276.5 115 274.75 119.25 271.25 122.75C267.75 126.25 263.5 128 258.5 128C253.5 128 249.25 126.25 245.75 122.75C242.25 119.25 240.5 115 240.5 110ZM259.5 153.75C259.5 158.583 257.833 162.75 254.5 166.25C251.333 169.583 247.417 171.25 242.75 171.25H143.75C140.583 171.417 137.917 172.833 135.75 175.5C133.75 178.167 132.25 181.167 131.25 184.5C130.25 187.833 129.75 191.167 129.75 194.5C129.75 198 130.25 201.417 131.25 204.75C132.25 208.083 133.75 211.083 135.75 213.75C137.917 216.417 140.583 217.75 143.75 217.75H243.75C248.417 217.75 252.333 219.417 255.5 222.75C258.833 226.083 260.5 230.25 260.5 235.25C260.5 240.083 258.833 244.083 255.5 247.25C252.333 250.75 248.417 252.5 243.75 252.5H145.25C133.583 252.667 123.917 249.5 116.25 243C108.75 236.5 103.333 229.083 100 220.75C96.8333 212.417 95.25 203.75 95.25 194.75C95.25 186.083 96.9167 177.583 100.25 169.25C103.583 160.917 109 153.5 116.5 147C124 140.5 133.583 137.083 145.25 136.75H146.75C147.75 136.583 148.75 136.5 149.75 136.5H153.75V113.25C153.917 108.583 155.667 104.75 159 101.75C162.333 98.5833 166.333 97 171 97C175.5 97.1667 179.333 98.8333 182.5 102C185.667 105 187.333 108.75 187.5 113.25V136.5H242.75C247.417 136.5 251.333 138.167 254.5 141.5C257.833 144.833 259.5 148.917 259.5 153.75Z" fill="#6F7073"/>
</svg>
