<svg width="3167" height="640" viewBox="0 0 3167 640" fill="none" xmlns="http://www.w3.org/2000/svg">
<path d="M234 154C234 144 237.5 135.5 244.5 128.5C251.5 121.5 260 118 270 118C280 118 288.5 121.5 295.5 128.5C302.5 135.5 306 144 306 154C306 164 302.5 172.5 295.5 179.5C288.5 186.5 280 190 270 190C260 190 251.5 186.5 244.5 179.5C237.5 172.5 234 164 234 154ZM320 154C320 144 323.5 135.5 330.5 128.5C337.5 121.5 346 118 356 118C366 118 374.5 121.5 381.5 128.5C388.5 135.5 392 144 392 154C392 164 388.5 172.5 381.5 179.5C374.5 186.5 366 190 356 190C346 190 337.5 186.5 330.5 179.5C323.5 172.5 320 164 320 154ZM358 241.5C358 251.167 354.667 259.5 348 266.5C341.667 273.167 333.833 276.5 324.5 276.5H126.5C120.167 276.833 114.833 279.667 110.5 285C106.5 290.333 103.5 296.333 101.5 303C99.5 309.667 98.5 316.333 98.5 323C98.5 330 99.5 336.833 101.5 343.5C103.5 350.167 106.5 356.167 110.5 361.5C114.833 366.833 120.167 369.5 126.5 369.5H326.5C335.833 369.5 343.667 372.833 350 379.5C356.667 386.167 360 394.5 360 404.5C360 414.167 356.667 422.167 350 428.5C343.667 435.5 335.833 439 326.5 439H129.5C106.167 439.333 86.8333 433 71.5 420C56.5 407 45.6667 392.167 39 375.5C32.6667 358.833 29.5 341.5 29.5 323.5C29.5 306.167 32.8333 289.167 39.5 272.5C46.1667 255.833 57 241 72 228C87 215 106.167 208.167 129.5 207.5H132.5C134.5 207.167 136.5 207 138.5 207H146.5V160.5C146.833 151.167 150.333 143.5 157 137.5C163.667 131.167 171.667 128 181 128C190 128.333 197.667 131.667 204 138C210.333 144 213.667 151.5 214 160.5V207H324.5C333.833 207 341.667 210.333 348 217C354.667 223.667 358 231.833 358 241.5ZM683 136C692 136.333 699.667 139.667 706 146C712.333 152 715.667 159.5 716 168.5V295C715.667 318.667 712.333 341 706 362C699.333 383 688.333 400.833 673 415.5C658 429.833 638.833 437.667 615.5 439H559.5C550.5 438.667 542.833 435.5 536.5 429.5C530.5 423.167 527.333 415.5 527 406.5C527 397.167 530 389.167 536 382.5C542.333 375.833 550.167 372.333 559.5 372H598.5C611.167 371.333 621.667 366.5 630 357.5C638.333 348.5 643.5 338.333 645.5 327C647.833 315.333 648.833 302.667 648.5 289V168.5C648.833 159.167 652.333 151.5 659 145.5C665.667 139.167 673.667 136 683 136ZM510.5 332.5L495 331.5C470.667 329.167 451.667 323.167 438 313.5C424.333 303.5 416.833 286.667 415.5 263V171C415.833 162 419 154.5 425 148.5C431 142.167 438.333 138.833 447 138.5C456 138.5 463.667 141.667 470 148C476.667 154 480.167 161.667 480.5 171V244C480.5 251.667 481.667 257.333 484 261C486.333 264.333 491.833 266.5 500.5 267.5C508.5 267.833 515.333 268.667 521 270C526.667 271 531.667 275.667 536 284C540 292 540.667 300.5 538 309.5C535.333 318.167 530 324.5 522 328.5C518 330.5 514.167 331.833 510.5 332.5ZM971.5 162C994.833 162 1014 169.833 1029 185.5C1044 201.167 1054.83 219 1061.5 239C1068.17 258.667 1071.5 278.833 1071.5 299.5C1071.5 320.167 1068.17 340.5 1061.5 360.5C1055.17 380.167 1044.33 397.833 1029 413.5C1014 429.167 994.833 437.667 971.5 439H947.5C938.5 438.667 930.833 435.5 924.5 429.5C918.5 423.167 915.333 415.5 915 406.5C915 397.167 918 389.167 924 382.5C930.333 375.833 938.167 372.333 947.5 372H954.5C967.833 371.333 978.5 367 986.5 359C994.833 350.667 1000.83 341.333 1004.5 331C1008.17 320.667 1010 310.167 1010 299.5C1010 288.833 1008 278.333 1004 268C1000 257.667 993.667 248.5 985 240.5C976.667 232.167 966.5 228.333 954.5 229H918V295C917.667 318.667 914.333 341 908 362C901.333 383 890.333 400.833 875 415.5C860 429.833 840.833 437.667 817.5 439H807.5C798.5 438.667 790.833 435.5 784.5 429.5C778.5 423.167 775.333 415.5 775 406.5C775 397.167 778 389.167 784 382.5C790.333 375.833 798.167 372.333 807.5 372C815.5 371.333 823.667 366.5 832 357.5C840.333 348.5 845.5 338.333 847.5 327C849.833 315.333 850.833 302.667 850.5 289V229H813.5C793.5 227.333 782.667 216.5 781 196.5C781 187.167 784 179.167 790 172.5C796.333 165.833 804.167 162.333 813.5 162H850.5C850.833 153 854.333 145.333 861 139C867.667 133 875.667 130 885 130C894 130.333 901.667 133.5 908 139.5C914.333 145.833 917.667 153.333 918 162H971.5ZM1083 136.5C1091.33 133.167 1099.67 133 1108 136C1116.33 139 1122.5 144.667 1126.5 153L1164 230.5C1170 249.833 1164.33 264.167 1147 273.5C1138.33 277.5 1129.67 278.167 1121 275.5C1112.33 272.5 1106 266.667 1102 258L1064.5 180C1061.17 171.333 1061.17 162.833 1064.5 154.5C1068.17 146.167 1074.33 140.167 1083 136.5ZM1203 191.5C1203 183.167 1206.17 176 1212.5 170C1219.17 164 1227.17 161 1236.5 161H1362.5C1363.17 152.333 1366.67 145 1373 139C1379.67 133 1387.67 130 1397 130C1406 130.333 1413.67 133.5 1420 139.5C1426 145.5 1429.33 152.667 1430 161H1515.5C1524.83 161 1532.83 163.833 1539.5 169.5C1545.83 175.833 1549 183.167 1549 191.5C1549 200.167 1545.67 207.5 1539 213.5C1532.67 219.5 1524.83 222.5 1515.5 222.5H1430V309.5C1430.33 315.5 1431.17 321.167 1432.5 326.5C1434.5 338.167 1439.67 348.5 1448 357.5C1456.33 366.5 1466.83 371.333 1479.5 372H1520.5C1529.83 372.333 1537.5 375.833 1543.5 382.5C1549.83 389.167 1553 397.167 1553 406.5C1552.67 415.5 1549.33 423.167 1543 429.5C1537 435.5 1529.5 438.667 1520.5 439H1462.5C1439.17 437.667 1420 429.667 1405 415C1395.67 406.333 1387.83 396.333 1381.5 385C1366.5 402.667 1346.67 412 1322 413H1320C1290.67 412 1268.5 406.667 1253.5 397C1238.5 387.333 1227.67 376.333 1221 364C1214.33 351.333 1211 338.667 1211 326C1211 312.667 1214.17 299.833 1220.5 287.5C1227.17 275.167 1238 264.167 1253 254.5C1268.33 244.5 1287.67 239.333 1311 239H1331C1342.33 239 1352.83 242.167 1362.5 248.5V222.5H1236.5C1227.17 222.5 1219.33 219.5 1213 213.5C1206.33 207.5 1203 200.167 1203 191.5ZM1309 296.5C1302.67 296.5 1297.17 298.167 1292.5 301.5C1287.83 304.5 1284.33 308.333 1282 313C1280 317.333 1279 321.667 1279 326C1279 330 1280 334.333 1282 339C1284.33 343.333 1287.83 347.167 1292.5 350.5C1297.17 353.833 1302.67 355.5 1309 355.5H1333C1339.33 355.5 1344.83 353.833 1349.5 350.5C1354.17 347.167 1357.67 343.167 1360 338.5C1361 335.833 1361.83 333.333 1362.5 331V321C1361.83 318.333 1361 315.5 1360 312.5C1357.67 308.167 1354.17 304.5 1349.5 301.5C1344.83 298.167 1339.33 296.5 1333 296.5H1309ZM1477 295.5C1477 285.833 1480.5 277.667 1487.5 271C1494.83 264 1503.67 260.5 1514 260.5C1524.33 260.5 1533 264 1540 271C1547.33 277.667 1551 285.833 1551 295.5C1551 305.167 1547.33 313.5 1540 320.5C1533 327.167 1524.33 330.5 1514 330.5C1503.67 330.5 1494.83 327.167 1487.5 320.5C1480.5 313.5 1477 305.167 1477 295.5ZM1730 144H1942.5C1951.83 144 1959.83 147.167 1966.5 153.5C1973.5 160.833 1976.67 168.833 1976 177.5L1960 295C1956.67 318.667 1950.5 341 1941.5 362C1931.83 383 1918.33 400.833 1901 415.5C1884 429.833 1863.83 437.667 1840.5 439H1794.5C1785.5 438.667 1777.83 435.5 1771.5 429.5C1765.5 423.167 1762.33 415.5 1762 406.5C1762 397.167 1765 389.167 1771 382.5C1777.33 375.833 1785.17 372.333 1794.5 372H1832.5C1845.17 371.333 1856.17 366.5 1865.5 357.5C1875.17 348.5 1881.83 338.333 1885.5 327C1889.17 315.333 1891.83 302.667 1893.5 289L1902.5 223.5C1903.5 215.5 1900.67 211.333 1894 211H1753C1749.67 225.333 1745.17 239 1739.5 252C1729.83 273 1716.33 290.833 1699 305.5C1682 319.833 1661.83 327.667 1638.5 329H1627.5C1618.5 328.667 1610.83 325.5 1604.5 319.5C1598.5 313.167 1595.33 305.5 1595 296.5C1595 287.167 1598 279.167 1604 272.5C1610.33 265.833 1618.17 262.333 1627.5 262H1630.5C1643.17 261.333 1654.17 256.5 1663.5 247.5C1673.17 238.5 1679.83 228.333 1683.5 217C1687.17 205.333 1689.83 192.667 1691.5 179V176.5C1693.17 167.167 1697.67 159.333 1705 153C1712.33 147 1720.67 144 1730 144ZM2040.5 405.5C2040.5 396.167 2043.67 388.333 2050 382C2056.67 375.333 2064.67 372 2074 372H2170V211H2074C2064.67 211 2056.83 207.667 2050.5 201C2043.83 194.667 2040.5 186.833 2040.5 177.5C2040.5 168.167 2043.67 160.333 2050 154C2056.67 147.333 2064.67 144 2074 144H2333C2342.33 144 2350.33 147.167 2357 153.5C2363.33 160.167 2366.5 168.167 2366.5 177.5C2366.5 186.833 2363.17 194.833 2356.5 201.5C2350.17 207.833 2342.33 211 2333 211H2237.5V372H2333C2342.33 372 2350.33 375.167 2357 381.5C2363.33 388.167 2366.5 396.167 2366.5 405.5C2366.5 414.833 2363.17 422.833 2356.5 429.5C2350.17 435.833 2342.33 439 2333 439H2074C2064.67 439 2056.83 435.667 2050.5 429C2043.83 422.667 2040.5 414.833 2040.5 405.5ZM2423.5 177.5C2423.5 168.167 2426.67 160.333 2433 154C2439.67 147.333 2447.67 144 2457 144H2708C2717.33 144 2725.33 147.167 2732 153.5C2738.33 160.167 2741.5 168.167 2741.5 177.5C2741.5 183.5 2740.17 189 2737.5 194L2668.5 307.5L2755.5 390C2768.5 405 2768.67 420.333 2756 436C2749.67 442.667 2741.83 446.5 2732.5 447.5C2723.5 448.5 2715.67 445.667 2709 439L2629.5 364C2615.17 382 2600.5 396.667 2585.5 408C2559.83 427.333 2535 437.667 2511 439H2459C2450 438.667 2442.33 435.5 2436 429.5C2430 423.167 2426.83 415.5 2426.5 406.5C2426.5 397.167 2429.5 389.167 2435.5 382.5C2441.83 375.833 2449.67 372.333 2459 372H2506C2518.67 371.333 2531.83 366.5 2545.5 357.5C2559.17 348.5 2570.5 338.333 2579.5 327C2588.5 315.333 2597 302.667 2605 289L2651.5 211H2457C2447.67 211 2439.83 207.667 2433.5 201C2426.83 194.667 2423.5 186.833 2423.5 177.5ZM2869.5 136C2878.5 136.333 2886.17 139.667 2892.5 146C2898.83 152 2902.17 159.5 2902.5 168.5V256H3103C3112.33 256 3120.33 259.167 3127 265.5C3133.33 272.167 3136.5 280.167 3136.5 289.5C3136.5 298.833 3133.17 306.833 3126.5 313.5C3120.17 319.833 3112.33 323 3103 323H2902.5V413.5C2900.5 433.5 2889.5 444.333 2869.5 446C2860.17 446 2852 443 2845 437C2838.33 430.667 2835 422.833 2835 413.5V168.5C2835.33 159.167 2838.83 151.5 2845.5 145.5C2852.17 139.167 2860.17 136 2869.5 136Z" fill="#252F3D"/>
<path d="M1046 602.375C1046 600.042 1046.79 598.083 1048.38 596.5C1050.04 594.833 1052.04 594 1054.38 594H1073.5L1070.25 584.75C1068.92 581.333 1067.58 578.125 1066.25 575.125C1065 572.042 1063.54 569.25 1061.88 566.75C1060.38 564.25 1058.67 562.917 1056.75 562.75C1054.75 562.917 1052.96 564.25 1051.38 566.75C1049.79 569.25 1048.33 572.042 1047 575.125C1045.75 578.125 1044.46 581.333 1043.12 584.75L1031.25 617.25C1030.42 619 1029.33 620.458 1028 621.625C1026.75 622.708 1024.83 623.25 1022.25 623.25C1019.83 623.25 1017.83 622.417 1016.25 620.75C1014.75 619.083 1014.08 617.083 1014.25 614.75C1014.33 613.667 1014.58 612.667 1015 611.75L1028.75 576.25C1032.58 566.917 1036.42 559.375 1040.25 553.625C1044 547.958 1049.5 545.083 1056.75 545C1063.92 545.083 1069.38 547.958 1073.12 553.625C1076.96 559.208 1080.79 566.75 1084.62 576.25L1098.38 611.75C1098.79 612.667 1099.04 613.667 1099.12 614.75C1099.29 617.083 1098.58 619.083 1097 620.75C1095.5 622.417 1093.54 623.25 1091.12 623.25C1088.38 623.25 1086.33 622.708 1085 621.625C1083.75 620.458 1082.71 619 1081.88 617.25L1079.5 610.75H1054.38C1052.04 610.75 1050.08 609.917 1048.5 608.25C1046.83 606.667 1046 604.708 1046 602.375ZM1181.25 554.125C1181.75 549.125 1184.5 546.417 1189.5 546C1191.83 546 1193.83 546.792 1195.5 548.375C1197.25 549.875 1198.12 551.792 1198.12 554.125V613.625C1198.04 615.958 1197.17 617.917 1195.5 619.5C1193.83 621 1191.83 621.75 1189.5 621.75H1137C1129.67 621.5 1124.12 619.792 1120.38 616.625C1116.62 613.375 1113.92 609.75 1112.25 605.75C1110.58 601.667 1109.75 597.542 1109.75 593.375C1109.75 589.042 1110.54 584.875 1112.12 580.875C1113.79 576.792 1116.5 573.167 1120.25 570C1124.08 566.75 1128.92 565.083 1134.75 565H1166.25C1168.58 565 1170.54 565.833 1172.12 567.5C1173.79 569.083 1174.62 571.042 1174.62 573.375C1174.62 575.708 1173.79 577.708 1172.12 579.375C1170.54 580.958 1168.58 581.75 1166.25 581.75H1134.25C1132.67 581.75 1131.29 582.417 1130.12 583.75C1128.96 585 1128.08 586.5 1127.5 588.25C1127 589.917 1126.75 591.583 1126.75 593.25C1126.75 595 1127 596.75 1127.5 598.5C1128.08 600.167 1128.96 601.667 1130.12 603C1131.29 604.25 1132.67 604.917 1134.25 605H1178C1180.17 604.917 1181.25 603.833 1181.25 601.75V554.125ZM1241.12 563.125C1244.04 563.125 1246.88 563.625 1249.62 564.625C1252.46 565.625 1255.17 567.083 1257.75 569C1258.17 569.417 1258.62 569.833 1259.12 570.25C1259.54 569.833 1260 569.417 1260.5 569C1263.08 567.083 1265.75 565.625 1268.5 564.625C1271.33 563.625 1274.17 563.125 1277 563.125C1279.92 563.125 1282.75 563.625 1285.5 564.625C1288.33 565.625 1291 567.125 1293.5 569.125C1296.08 571.042 1298.33 573.625 1300.25 576.875C1302.25 580.125 1303.25 584 1303.25 588.5V615.125C1302.75 620.125 1300 622.833 1295 623.25C1292.67 623.25 1290.62 622.5 1288.88 621C1287.21 619.417 1286.38 617.458 1286.38 615.125V589.5C1286.38 587.5 1286 585.833 1285.25 584.5C1284.5 583.083 1283.67 582 1282.75 581.25C1281.83 580.417 1280.88 579.833 1279.88 579.5C1278.88 579.083 1277.88 578.875 1276.88 578.875C1275.88 578.875 1274.88 579.083 1273.88 579.5C1272.96 579.833 1272.04 580.417 1271.12 581.25C1270.21 582 1269.38 583.083 1268.62 584.5C1267.88 585.833 1267.46 587.5 1267.38 589.5V615.125C1266.88 620.125 1264.12 622.833 1259.12 623.25C1256.79 623.25 1254.75 622.5 1253 621C1251.33 619.417 1250.5 617.458 1250.5 615.125V589.5C1250.5 587.5 1250.12 585.833 1249.38 584.5C1248.62 583.083 1247.79 582 1246.88 581.25C1245.96 580.417 1245 579.833 1244 579.5C1243 579.083 1242 578.875 1241 578.875C1240 578.875 1239 579.083 1238 579.5C1237.08 579.833 1236.17 580.417 1235.25 581.25C1234.33 582 1233.5 583.083 1232.75 584.5C1232 585.833 1231.58 587.5 1231.5 589.5V615.125C1231.08 620.125 1228.38 622.833 1223.38 623.25C1221.04 623.25 1219 622.5 1217.25 621C1215.58 619.417 1214.75 617.458 1214.75 615.125V588.5C1214.92 584 1215.96 580.125 1217.88 576.875C1219.79 573.625 1222.04 571.042 1224.62 569.125C1227.21 567.125 1229.88 565.625 1232.62 564.625C1235.46 563.625 1238.29 563.125 1241.12 563.125ZM1327.38 563.75C1329.62 563.833 1331.54 564.667 1333.12 566.25C1334.71 567.75 1335.54 569.625 1335.62 571.875V615.125C1335.12 620.125 1332.38 622.833 1327.38 623.25C1325.04 623.25 1323 622.5 1321.25 621C1319.58 619.417 1318.75 617.458 1318.75 615.125V571.875C1318.83 569.542 1319.71 567.625 1321.38 566.125C1323.04 564.542 1325.04 563.75 1327.38 563.75ZM1316.88 547.5C1316.88 545.167 1317.88 543.167 1319.88 541.5C1321.88 539.833 1324.29 539 1327.12 539C1329.96 539 1332.38 539.833 1334.38 541.5C1336.38 543.167 1337.38 545.167 1337.38 547.5C1337.38 549.917 1336.38 551.958 1334.38 553.625C1332.38 555.292 1329.96 556.125 1327.12 556.125C1324.29 556.125 1321.88 555.292 1319.88 553.625C1317.88 551.958 1316.88 549.917 1316.88 547.5ZM1390.75 563.125C1395.08 563.125 1399.33 563.625 1403.5 564.625C1407.75 565.625 1411.79 567.125 1415.62 569.125C1419.46 571.042 1422.83 573.625 1425.75 576.875C1428.75 580.125 1430.38 584 1430.62 588.5V593.75V615.125C1430.12 620.125 1427.38 622.833 1422.38 623.25C1420.04 623.25 1418 622.5 1416.25 621C1414.58 619.417 1413.75 617.458 1413.75 615.125V609.625V592.375C1413.58 589.792 1412.58 587.667 1410.75 586C1409 584.25 1407 582.875 1404.75 581.875C1402.58 580.875 1400.29 580.125 1397.88 579.625C1395.54 579.125 1393.17 578.875 1390.75 578.875C1388.33 578.875 1385.92 579.125 1383.5 579.625C1381.17 580.125 1378.88 580.875 1376.62 581.875C1374.46 582.875 1372.46 584.25 1370.62 586C1368.88 587.667 1367.92 589.792 1367.75 592.375V609.625V615.125C1367.33 620.125 1364.62 622.833 1359.62 623.25C1357.29 623.25 1355.25 622.5 1353.5 621C1351.83 619.417 1351 617.458 1351 615.125V593.75V588.5C1351.25 584 1352.83 580.125 1355.75 576.875C1358.67 573.625 1362.04 571.042 1365.88 569.125C1369.71 567.125 1373.71 565.625 1377.88 564.625C1382.12 563.625 1386.42 563.125 1390.75 563.125ZM1455.12 563.75C1457.38 563.833 1459.29 564.667 1460.88 566.25C1462.46 567.75 1463.29 569.625 1463.38 571.875V615.125C1462.88 620.125 1460.12 622.833 1455.12 623.25C1452.79 623.25 1450.75 622.5 1449 621C1447.33 619.417 1446.5 617.458 1446.5 615.125V571.875C1446.58 569.542 1447.46 567.625 1449.12 566.125C1450.79 564.542 1452.79 563.75 1455.12 563.75ZM1444.62 547.5C1444.62 545.167 1445.62 543.167 1447.62 541.5C1449.62 539.833 1452.04 539 1454.88 539C1457.71 539 1460.12 539.833 1462.12 541.5C1464.12 543.167 1465.12 545.167 1465.12 547.5C1465.12 549.917 1464.12 551.958 1462.12 553.625C1460.12 555.292 1457.71 556.125 1454.88 556.125C1452.04 556.125 1449.62 555.292 1447.62 553.625C1445.62 551.958 1444.62 549.917 1444.62 547.5ZM1558 572.25C1558 574.333 1557.17 576.083 1555.5 577.5C1553.92 578.833 1551.96 579.5 1549.62 579.5H1496.75C1495.67 579.5 1494.79 579.708 1494.12 580.125C1493.46 580.542 1492.96 581 1492.62 581.5C1492.29 581.917 1492.12 582.292 1492.12 582.625C1492.12 583.042 1492.29 583.5 1492.62 584C1492.96 584.417 1493.46 584.833 1494.12 585.25C1494.79 585.583 1495.67 585.792 1496.75 585.875H1537.62C1542.88 585.958 1547.21 587 1550.62 589C1554.04 590.917 1556.46 593.208 1557.88 595.875C1559.38 598.458 1560.12 601.083 1560.12 603.75C1560.12 606.333 1559.38 608.958 1557.88 611.625C1556.38 614.208 1553.92 616.5 1550.5 618.5C1547.17 620.417 1542.88 621.375 1537.62 621.375C1536.71 621.458 1536.04 621.5 1535.62 621.5H1487.12C1484.79 621.5 1482.79 620.833 1481.12 619.5C1479.54 618.083 1478.75 616.375 1478.75 614.375C1478.75 612.292 1479.58 610.542 1481.25 609.125C1482.83 607.792 1484.79 607.125 1487.12 607.125H1538.62C1539.88 607.208 1540.88 607.042 1541.62 606.625C1542.46 606.208 1543.08 605.75 1543.5 605.25C1543.92 604.75 1544.12 604.25 1544.12 603.75C1544.12 603.5 1543.92 603.083 1543.5 602.5C1543.08 601.833 1542.46 601.333 1541.62 601C1540.88 600.583 1539.88 600.333 1538.62 600.25H1497.62C1492.79 600.167 1488.79 599.167 1485.62 597.25C1482.46 595.25 1480.21 592.958 1478.88 590.375C1477.54 587.792 1476.88 585.208 1476.88 582.625C1476.88 580.042 1477.54 577.5 1478.88 575C1480.29 572.417 1482.54 570.208 1485.62 568.375C1488.79 566.458 1492.79 565.417 1497.62 565.25C1498.46 565.167 1499.08 565.125 1499.5 565.125H1549.62C1551.96 565.125 1553.92 565.833 1555.5 567.25C1557.17 568.583 1558 570.25 1558 572.25ZM1601.12 546C1603.46 546 1605.46 546.792 1607.12 548.375C1608.79 549.875 1609.67 551.792 1609.75 554.125V565H1652.25C1654.58 565 1656.58 565.792 1658.25 567.375C1659.83 569.042 1660.62 571.042 1660.62 573.375C1660.62 575.708 1659.79 577.708 1658.12 579.375C1656.54 580.958 1654.58 581.75 1652.25 581.75H1609.75V584.25C1609.67 587.667 1609.88 590.833 1610.38 593.75C1610.96 596.583 1612.29 599.125 1614.38 601.375C1616.46 603.625 1619.08 604.833 1622.25 605H1652.75C1655.08 605.083 1657 605.958 1658.5 607.625C1660.08 609.292 1660.88 611.292 1660.88 613.625C1660.79 615.875 1659.96 617.792 1658.38 619.375C1656.88 620.875 1655 621.667 1652.75 621.75H1618C1612.17 621.417 1607.33 619.458 1603.5 615.875C1599.75 612.208 1597.04 607.75 1595.38 602.5C1593.79 597.25 1592.96 591.667 1592.88 585.75V581.75H1578.5C1576.17 581.75 1574.21 580.917 1572.62 579.25C1570.96 577.667 1570.12 575.708 1570.12 573.375C1570.12 571.042 1570.92 569.083 1572.5 567.5C1574.17 565.833 1576.17 565 1578.5 565H1592.88V554.125C1592.96 551.875 1593.79 550 1595.38 548.5C1596.96 546.917 1598.88 546.083 1601.12 546ZM1675.5 580.75C1677.08 576.75 1679.75 573.167 1683.5 570C1687.33 566.75 1692.17 565.083 1698 565H1745C1747.33 565 1749.29 565.833 1750.88 567.5C1752.54 569.083 1753.38 571.042 1753.38 573.375C1753.38 575.708 1752.54 577.708 1750.88 579.375C1749.29 580.958 1747.33 581.75 1745 581.75H1697.5C1695.92 581.75 1694.54 582.417 1693.38 583.75C1692.21 585 1691.29 586.5 1690.62 588.25C1690.04 590 1689.75 591.667 1689.75 593.25V615.125C1689.25 620.125 1686.5 622.833 1681.5 623.25C1679.17 623.25 1677.12 622.5 1675.38 621C1673.71 619.417 1672.88 617.458 1672.88 615.125V593.375H1673C1673 589.042 1673.83 584.833 1675.5 580.75ZM1835.62 615.125V585C1835.62 582.917 1834.54 581.833 1832.38 581.75H1788.62C1787.04 581.833 1785.67 582.542 1784.5 583.875C1783.33 585.125 1782.46 586.625 1781.88 588.375C1781.38 590.042 1781.12 591.75 1781.12 593.5C1781.12 595.167 1781.38 596.875 1781.88 598.625C1782.46 600.292 1783.33 601.792 1784.5 603.125C1785.67 604.375 1787.04 605 1788.62 605H1820.62C1822.96 605 1824.92 605.833 1826.5 607.5C1828.17 609.083 1829 611.042 1829 613.375C1829 615.708 1828.17 617.667 1826.5 619.25C1824.92 620.917 1822.96 621.75 1820.62 621.75H1789.12C1783.29 621.667 1778.46 620.042 1774.62 616.875C1770.88 613.625 1768.17 610 1766.5 606C1764.92 601.917 1764.12 597.708 1764.12 593.375C1764.12 589.208 1764.96 585.125 1766.62 581.125C1768.29 577.042 1771 573.417 1774.75 570.25C1778.5 567 1784.04 565.25 1791.38 565H1843.88C1846.21 565 1848.21 565.792 1849.88 567.375C1851.54 568.875 1852.42 570.792 1852.5 573.125V615.125C1852.5 617.458 1851.62 619.417 1849.88 621C1848.21 622.5 1846.21 623.25 1843.88 623.25C1838.88 622.833 1836.12 620.125 1835.62 615.125ZM1895.75 546C1898.08 546 1900.08 546.792 1901.75 548.375C1903.42 549.875 1904.29 551.792 1904.38 554.125V565H1946.88C1949.21 565 1951.21 565.792 1952.88 567.375C1954.46 569.042 1955.25 571.042 1955.25 573.375C1955.25 575.708 1954.42 577.708 1952.75 579.375C1951.17 580.958 1949.21 581.75 1946.88 581.75H1904.38V584.25C1904.29 587.667 1904.5 590.833 1905 593.75C1905.58 596.583 1906.92 599.125 1909 601.375C1911.08 603.625 1913.71 604.833 1916.88 605H1947.38C1949.71 605.083 1951.62 605.958 1953.12 607.625C1954.71 609.292 1955.5 611.292 1955.5 613.625C1955.42 615.875 1954.58 617.792 1953 619.375C1951.5 620.875 1949.62 621.667 1947.38 621.75H1912.62C1906.79 621.417 1901.96 619.458 1898.12 615.875C1894.38 612.208 1891.67 607.75 1890 602.5C1888.42 597.25 1887.58 591.667 1887.5 585.75V581.75H1873.12C1870.79 581.75 1868.83 580.917 1867.25 579.25C1865.58 577.667 1864.75 575.708 1864.75 573.375C1864.75 571.042 1865.54 569.083 1867.12 567.5C1868.79 565.833 1870.79 565 1873.12 565H1887.5V554.125C1887.58 551.875 1888.42 550 1890 548.5C1891.58 546.917 1893.5 546.083 1895.75 546ZM1993.38 621.75C1986.04 621.5 1980.5 619.792 1976.75 616.625C1973 613.375 1970.29 609.75 1968.62 605.75C1966.96 601.667 1966.12 597.542 1966.12 593.375C1966.12 589.042 1966.92 584.875 1968.5 580.875C1970.17 576.792 1972.88 573.167 1976.62 570C1980.46 566.75 1985.29 565.083 1991.12 565H2031.62C2037.46 565.083 2042.25 566.75 2046 570C2049.83 573.167 2052.54 576.792 2054.12 580.875C2055.79 584.875 2056.62 589.042 2056.62 593.375C2056.62 597.542 2055.79 601.667 2054.12 605.75C2052.46 609.75 2049.75 613.375 2046 616.625C2042.25 619.792 2036.71 621.5 2029.38 621.75H1993.38ZM1990.62 581.75C1989.04 581.75 1987.67 582.417 1986.5 583.75C1985.33 585 1984.46 586.5 1983.88 588.25C1983.38 589.917 1983.12 591.583 1983.12 593.25C1983.12 595 1983.38 596.75 1983.88 598.5C1984.46 600.167 1985.33 601.667 1986.5 603C1987.67 604.25 1989.04 604.917 1990.62 605H2032.12C2033.71 604.917 2035.08 604.25 2036.25 603C2037.42 601.667 2038.25 600.167 2038.75 598.5C2039.33 596.75 2039.62 595 2039.62 593.25C2039.62 591.583 2039.33 589.917 2038.75 588.25C2038.25 586.5 2037.42 585 2036.25 583.75C2035.08 582.417 2033.71 581.75 2032.12 581.75H1990.62ZM2073.62 580.75C2075.21 576.75 2077.88 573.167 2081.62 570C2085.46 566.75 2090.29 565.083 2096.12 565H2143.12C2145.46 565 2147.42 565.833 2149 567.5C2150.67 569.083 2151.5 571.042 2151.5 573.375C2151.5 575.708 2150.67 577.708 2149 579.375C2147.42 580.958 2145.46 581.75 2143.12 581.75H2095.62C2094.04 581.75 2092.67 582.417 2091.5 583.75C2090.33 585 2089.42 586.5 2088.75 588.25C2088.17 590 2087.88 591.667 2087.88 593.25V615.125C2087.38 620.125 2084.62 622.833 2079.62 623.25C2077.29 623.25 2075.25 622.5 2073.5 621C2071.83 619.417 2071 617.458 2071 615.125V593.375H2071.12C2071.12 589.042 2071.96 584.833 2073.62 580.75Z" fill="#252F3D"/>
</svg>
