<svg width="3167" height="651" viewBox="0 0 3167 651" fill="none" xmlns="http://www.w3.org/2000/svg">
<path d="M234 154C234 144 237.5 135.5 244.5 128.5C251.5 121.5 260 118 270 118C280 118 288.5 121.5 295.5 128.5C302.5 135.5 306 144 306 154C306 164 302.5 172.5 295.5 179.5C288.5 186.5 280 190 270 190C260 190 251.5 186.5 244.5 179.5C237.5 172.5 234 164 234 154ZM320 154C320 144 323.5 135.5 330.5 128.5C337.5 121.5 346 118 356 118C366 118 374.5 121.5 381.5 128.5C388.5 135.5 392 144 392 154C392 164 388.5 172.5 381.5 179.5C374.5 186.5 366 190 356 190C346 190 337.5 186.5 330.5 179.5C323.5 172.5 320 164 320 154ZM358 241.5C358 251.167 354.667 259.5 348 266.5C341.667 273.167 333.833 276.5 324.5 276.5H126.5C120.167 276.833 114.833 279.667 110.5 285C106.5 290.333 103.5 296.333 101.5 303C99.5 309.667 98.5 316.333 98.5 323C98.5 330 99.5 336.833 101.5 343.5C103.5 350.167 106.5 356.167 110.5 361.5C114.833 366.833 120.167 369.5 126.5 369.5H326.5C335.833 369.5 343.667 372.833 350 379.5C356.667 386.167 360 394.5 360 404.5C360 414.167 356.667 422.167 350 428.5C343.667 435.5 335.833 439 326.5 439H129.5C106.167 439.333 86.8333 433 71.5 420C56.5 407 45.6667 392.167 39 375.5C32.6667 358.833 29.5 341.5 29.5 323.5C29.5 306.167 32.8333 289.167 39.5 272.5C46.1667 255.833 57 241 72 228C87 215 106.167 208.167 129.5 207.5H132.5C134.5 207.167 136.5 207 138.5 207H146.5V160.5C146.833 151.167 150.333 143.5 157 137.5C163.667 131.167 171.667 128 181 128C190 128.333 197.667 131.667 204 138C210.333 144 213.667 151.5 214 160.5V207H324.5C333.833 207 341.667 210.333 348 217C354.667 223.667 358 231.833 358 241.5ZM683 136C692 136.333 699.667 139.667 706 146C712.333 152 715.667 159.5 716 168.5V295C715.667 318.667 712.333 341 706 362C699.333 383 688.333 400.833 673 415.5C658 429.833 638.833 437.667 615.5 439H559.5C550.5 438.667 542.833 435.5 536.5 429.5C530.5 423.167 527.333 415.5 527 406.5C527 397.167 530 389.167 536 382.5C542.333 375.833 550.167 372.333 559.5 372H598.5C611.167 371.333 621.667 366.5 630 357.5C638.333 348.5 643.5 338.333 645.5 327C647.833 315.333 648.833 302.667 648.5 289V168.5C648.833 159.167 652.333 151.5 659 145.5C665.667 139.167 673.667 136 683 136ZM510.5 332.5L495 331.5C470.667 329.167 451.667 323.167 438 313.5C424.333 303.5 416.833 286.667 415.5 263V171C415.833 162 419 154.5 425 148.5C431 142.167 438.333 138.833 447 138.5C456 138.5 463.667 141.667 470 148C476.667 154 480.167 161.667 480.5 171V244C480.5 251.667 481.667 257.333 484 261C486.333 264.333 491.833 266.5 500.5 267.5C508.5 267.833 515.333 268.667 521 270C526.667 271 531.667 275.667 536 284C540 292 540.667 300.5 538 309.5C535.333 318.167 530 324.5 522 328.5C518 330.5 514.167 331.833 510.5 332.5ZM971.5 162C994.833 162 1014 169.833 1029 185.5C1044 201.167 1054.83 219 1061.5 239C1068.17 258.667 1071.5 278.833 1071.5 299.5C1071.5 320.167 1068.17 340.5 1061.5 360.5C1055.17 380.167 1044.33 397.833 1029 413.5C1014 429.167 994.833 437.667 971.5 439H947.5C938.5 438.667 930.833 435.5 924.5 429.5C918.5 423.167 915.333 415.5 915 406.5C915 397.167 918 389.167 924 382.5C930.333 375.833 938.167 372.333 947.5 372H954.5C967.833 371.333 978.5 367 986.5 359C994.833 350.667 1000.83 341.333 1004.5 331C1008.17 320.667 1010 310.167 1010 299.5C1010 288.833 1008 278.333 1004 268C1000 257.667 993.667 248.5 985 240.5C976.667 232.167 966.5 228.333 954.5 229H918V295C917.667 318.667 914.333 341 908 362C901.333 383 890.333 400.833 875 415.5C860 429.833 840.833 437.667 817.5 439H807.5C798.5 438.667 790.833 435.5 784.5 429.5C778.5 423.167 775.333 415.5 775 406.5C775 397.167 778 389.167 784 382.5C790.333 375.833 798.167 372.333 807.5 372C815.5 371.333 823.667 366.5 832 357.5C840.333 348.5 845.5 338.333 847.5 327C849.833 315.333 850.833 302.667 850.5 289V229H813.5C793.5 227.333 782.667 216.5 781 196.5C781 187.167 784 179.167 790 172.5C796.333 165.833 804.167 162.333 813.5 162H850.5C850.833 153 854.333 145.333 861 139C867.667 133 875.667 130 885 130C894 130.333 901.667 133.5 908 139.5C914.333 145.833 917.667 153.333 918 162H971.5ZM1083 136.5C1091.33 133.167 1099.67 133 1108 136C1116.33 139 1122.5 144.667 1126.5 153L1164 230.5C1170 249.833 1164.33 264.167 1147 273.5C1138.33 277.5 1129.67 278.167 1121 275.5C1112.33 272.5 1106 266.667 1102 258L1064.5 180C1061.17 171.333 1061.17 162.833 1064.5 154.5C1068.17 146.167 1074.33 140.167 1083 136.5ZM1203 191.5C1203 183.167 1206.17 176 1212.5 170C1219.17 164 1227.17 161 1236.5 161H1362.5C1363.17 152.333 1366.67 145 1373 139C1379.67 133 1387.67 130 1397 130C1406 130.333 1413.67 133.5 1420 139.5C1426 145.5 1429.33 152.667 1430 161H1515.5C1524.83 161 1532.83 163.833 1539.5 169.5C1545.83 175.833 1549 183.167 1549 191.5C1549 200.167 1545.67 207.5 1539 213.5C1532.67 219.5 1524.83 222.5 1515.5 222.5H1430V309.5C1430.33 315.5 1431.17 321.167 1432.5 326.5C1434.5 338.167 1439.67 348.5 1448 357.5C1456.33 366.5 1466.83 371.333 1479.5 372H1520.5C1529.83 372.333 1537.5 375.833 1543.5 382.5C1549.83 389.167 1553 397.167 1553 406.5C1552.67 415.5 1549.33 423.167 1543 429.5C1537 435.5 1529.5 438.667 1520.5 439H1462.5C1439.17 437.667 1420 429.667 1405 415C1395.67 406.333 1387.83 396.333 1381.5 385C1366.5 402.667 1346.67 412 1322 413H1320C1290.67 412 1268.5 406.667 1253.5 397C1238.5 387.333 1227.67 376.333 1221 364C1214.33 351.333 1211 338.667 1211 326C1211 312.667 1214.17 299.833 1220.5 287.5C1227.17 275.167 1238 264.167 1253 254.5C1268.33 244.5 1287.67 239.333 1311 239H1331C1342.33 239 1352.83 242.167 1362.5 248.5V222.5H1236.5C1227.17 222.5 1219.33 219.5 1213 213.5C1206.33 207.5 1203 200.167 1203 191.5ZM1309 296.5C1302.67 296.5 1297.17 298.167 1292.5 301.5C1287.83 304.5 1284.33 308.333 1282 313C1280 317.333 1279 321.667 1279 326C1279 330 1280 334.333 1282 339C1284.33 343.333 1287.83 347.167 1292.5 350.5C1297.17 353.833 1302.67 355.5 1309 355.5H1333C1339.33 355.5 1344.83 353.833 1349.5 350.5C1354.17 347.167 1357.67 343.167 1360 338.5C1361 335.833 1361.83 333.333 1362.5 331V321C1361.83 318.333 1361 315.5 1360 312.5C1357.67 308.167 1354.17 304.5 1349.5 301.5C1344.83 298.167 1339.33 296.5 1333 296.5H1309ZM1477 295.5C1477 285.833 1480.5 277.667 1487.5 271C1494.83 264 1503.67 260.5 1514 260.5C1524.33 260.5 1533 264 1540 271C1547.33 277.667 1551 285.833 1551 295.5C1551 305.167 1547.33 313.5 1540 320.5C1533 327.167 1524.33 330.5 1514 330.5C1503.67 330.5 1494.83 327.167 1487.5 320.5C1480.5 313.5 1477 305.167 1477 295.5ZM1730 144H1942.5C1951.83 144 1959.83 147.167 1966.5 153.5C1973.5 160.833 1976.67 168.833 1976 177.5L1960 295C1956.67 318.667 1950.5 341 1941.5 362C1931.83 383 1918.33 400.833 1901 415.5C1884 429.833 1863.83 437.667 1840.5 439H1794.5C1785.5 438.667 1777.83 435.5 1771.5 429.5C1765.5 423.167 1762.33 415.5 1762 406.5C1762 397.167 1765 389.167 1771 382.5C1777.33 375.833 1785.17 372.333 1794.5 372H1832.5C1845.17 371.333 1856.17 366.5 1865.5 357.5C1875.17 348.5 1881.83 338.333 1885.5 327C1889.17 315.333 1891.83 302.667 1893.5 289L1902.5 223.5C1903.5 215.5 1900.67 211.333 1894 211H1753C1749.67 225.333 1745.17 239 1739.5 252C1729.83 273 1716.33 290.833 1699 305.5C1682 319.833 1661.83 327.667 1638.5 329H1627.5C1618.5 328.667 1610.83 325.5 1604.5 319.5C1598.5 313.167 1595.33 305.5 1595 296.5C1595 287.167 1598 279.167 1604 272.5C1610.33 265.833 1618.17 262.333 1627.5 262H1630.5C1643.17 261.333 1654.17 256.5 1663.5 247.5C1673.17 238.5 1679.83 228.333 1683.5 217C1687.17 205.333 1689.83 192.667 1691.5 179V176.5C1693.17 167.167 1697.67 159.333 1705 153C1712.33 147 1720.67 144 1730 144ZM2040.5 405.5C2040.5 396.167 2043.67 388.333 2050 382C2056.67 375.333 2064.67 372 2074 372H2170V211H2074C2064.67 211 2056.83 207.667 2050.5 201C2043.83 194.667 2040.5 186.833 2040.5 177.5C2040.5 168.167 2043.67 160.333 2050 154C2056.67 147.333 2064.67 144 2074 144H2333C2342.33 144 2350.33 147.167 2357 153.5C2363.33 160.167 2366.5 168.167 2366.5 177.5C2366.5 186.833 2363.17 194.833 2356.5 201.5C2350.17 207.833 2342.33 211 2333 211H2237.5V372H2333C2342.33 372 2350.33 375.167 2357 381.5C2363.33 388.167 2366.5 396.167 2366.5 405.5C2366.5 414.833 2363.17 422.833 2356.5 429.5C2350.17 435.833 2342.33 439 2333 439H2074C2064.67 439 2056.83 435.667 2050.5 429C2043.83 422.667 2040.5 414.833 2040.5 405.5ZM2423.5 177.5C2423.5 168.167 2426.67 160.333 2433 154C2439.67 147.333 2447.67 144 2457 144H2708C2717.33 144 2725.33 147.167 2732 153.5C2738.33 160.167 2741.5 168.167 2741.5 177.5C2741.5 183.5 2740.17 189 2737.5 194L2668.5 307.5L2755.5 390C2768.5 405 2768.67 420.333 2756 436C2749.67 442.667 2741.83 446.5 2732.5 447.5C2723.5 448.5 2715.67 445.667 2709 439L2629.5 364C2615.17 382 2600.5 396.667 2585.5 408C2559.83 427.333 2535 437.667 2511 439H2459C2450 438.667 2442.33 435.5 2436 429.5C2430 423.167 2426.83 415.5 2426.5 406.5C2426.5 397.167 2429.5 389.167 2435.5 382.5C2441.83 375.833 2449.67 372.333 2459 372H2506C2518.67 371.333 2531.83 366.5 2545.5 357.5C2559.17 348.5 2570.5 338.333 2579.5 327C2588.5 315.333 2597 302.667 2605 289L2651.5 211H2457C2447.67 211 2439.83 207.667 2433.5 201C2426.83 194.667 2423.5 186.833 2423.5 177.5ZM2869.5 136C2878.5 136.333 2886.17 139.667 2892.5 146C2898.83 152 2902.17 159.5 2902.5 168.5V256H3103C3112.33 256 3120.33 259.167 3127 265.5C3133.33 272.167 3136.5 280.167 3136.5 289.5C3136.5 298.833 3133.17 306.833 3126.5 313.5C3120.17 319.833 3112.33 323 3103 323H2902.5V413.5C2900.5 433.5 2889.5 444.333 2869.5 446C2860.17 446 2852 443 2845 437C2838.33 430.667 2835 422.833 2835 413.5V168.5C2835.33 159.167 2838.83 151.5 2845.5 145.5C2852.17 139.167 2860.17 136 2869.5 136Z" fill="#FA9900"/>
<path d="M699.25 546C701.583 546 703.583 546.792 705.25 548.375C706.917 549.875 707.792 551.792 707.875 554.125V584.25C707.792 587.667 708 590.833 708.5 593.75C709.083 596.583 710.417 599.125 712.5 601.375C714.583 603.625 717.208 604.833 720.375 605H760.375C762.708 605.083 764.625 605.958 766.125 607.625C767.708 609.292 768.5 611.292 768.5 613.625C768.417 615.875 767.583 617.792 766 619.375C764.5 620.875 762.625 621.667 760.375 621.75H716.125C710.292 621.417 705.458 619.458 701.625 615.875C697.875 612.208 695.167 607.75 693.5 602.5C691.917 597.25 691.083 591.667 691 585.75V554.125C691.083 551.875 691.917 550 693.5 548.5C695.083 546.917 697 546.083 699.25 546ZM820.25 623.875C815.917 623.875 811.625 623.375 807.375 622.375C803.208 621.375 799.208 619.917 795.375 618C791.542 616 788.167 613.375 785.25 610.125C782.333 606.875 780.75 603 780.5 598.5V593.25V571.875C780.5 569.542 781.333 567.625 783 566.125C784.75 564.542 786.792 563.75 789.125 563.75C794.125 564.167 796.833 566.875 797.25 571.875V577.375V594.625C797.417 597.208 798.375 599.375 800.125 601.125C801.958 602.792 803.958 604.125 806.125 605.125C808.375 606.125 810.667 606.875 813 607.375C815.417 607.875 817.833 608.125 820.25 608.125C822.667 608.125 825.042 607.875 827.375 607.375C829.792 606.875 832.083 606.125 834.25 605.125C836.5 604.125 838.5 602.792 840.25 601.125C842.083 599.375 843.083 597.208 843.25 594.625V577.375V571.875C843.25 569.542 844.083 567.625 845.75 566.125C847.5 564.542 849.542 563.75 851.875 563.75C856.875 564.167 859.625 566.875 860.125 571.875V593.25V598.5C859.875 603 858.25 606.875 855.25 610.125C852.333 613.375 848.958 616 845.125 618C841.292 619.917 837.25 621.375 833 622.375C828.833 623.375 824.583 623.875 820.25 623.875ZM913 614C906.583 618.833 900.375 621.417 894.375 621.75H881.375C879.125 621.667 877.208 620.875 875.625 619.375C874.125 617.792 873.333 615.875 873.25 613.625C873.25 611.292 874 609.292 875.5 607.625C877.083 605.958 879.042 605.083 881.375 605H893.125C896.292 604.833 899.583 603.625 903 601.375C906.417 599.125 909.25 596.542 911.5 593.625C911.75 593.375 912 593.083 912.25 592.75C910 590 907.25 587.542 904 585.375C900.583 583.125 897.292 581.917 894.125 581.75H882.375C880.042 581.667 878.083 580.792 876.5 579.125C875 577.458 874.25 575.458 874.25 573.125C874.333 570.875 875.125 569 876.625 567.5C878.208 565.917 880.125 565.083 882.375 565H895.375C901.375 565.333 907.583 567.917 914 572.75C916.75 574.833 919.333 577.208 921.75 579.875C924.167 577.208 926.792 574.833 929.625 572.75C935.958 567.917 942.125 565.333 948.125 565H961.125C963.375 565.083 965.25 565.917 966.75 567.5C968.333 569 969.167 570.875 969.25 573.125C969.25 575.458 968.458 577.458 966.875 579.125C965.375 580.792 963.458 581.667 961.125 581.75H949.375C946.208 581.917 942.917 583.125 939.5 585.375C936.25 587.542 933.5 590 931.25 592.75C931.5 593.083 931.75 593.375 932 593.625C934.25 596.542 937.083 599.125 940.5 601.375C943.917 603.625 947.208 604.833 950.375 605H962.125C964.458 605.083 966.375 605.958 967.875 607.625C969.458 609.292 970.25 611.292 970.25 613.625C970.167 615.875 969.333 617.792 967.75 619.375C966.25 620.875 964.375 621.667 962.125 621.75H949.125C943.125 621.417 936.958 618.833 930.625 614C927.375 611.5 924.417 608.792 921.75 605.875C919.083 608.792 916.167 611.5 913 614ZM991.375 563.5C993.708 563.5 995.708 564.292 997.375 565.875C999.042 567.375 999.917 569.292 1000 571.625V584.25C999.917 587.667 1000.12 590.833 1000.62 593.75C1001.21 596.583 1002.54 599.125 1004.62 601.375C1006.71 603.625 1009.33 604.833 1012.5 605H1045.88V571.875C1045.88 569.542 1046.71 567.625 1048.38 566.125C1050.12 564.542 1052.17 563.75 1054.5 563.75C1059.5 564.167 1062.25 566.875 1062.75 571.875V612.625C1062.75 619.292 1061.83 625.583 1060 631.5C1058.33 636.75 1055.58 641.167 1051.75 644.75C1048 648.417 1043.21 650.417 1037.38 650.75H994.125C991.875 650.667 989.958 649.833 988.375 648.25C986.875 646.75 986.083 644.875 986 642.625C986 640.292 986.75 638.292 988.25 636.625C989.833 634.958 991.792 634.083 994.125 634H1033.12C1036.29 633.833 1038.92 632.625 1041 630.375C1043.08 628.125 1044.42 625.5 1045 622.5C1045.08 622.25 1045.12 622 1045.12 621.75H1008.25C1002.42 621.417 997.583 619.458 993.75 615.875C990 612.208 987.292 607.75 985.625 602.5C984.042 597.25 983.208 591.667 983.125 585.75V571.625C983.208 569.375 984.042 567.5 985.625 566C987.208 564.417 989.125 563.583 991.375 563.5ZM1224 556.375C1224 558.708 1223.17 560.667 1221.5 562.25C1219.92 563.917 1217.96 564.75 1215.62 564.75H1165.62C1164.04 564.833 1162.71 565.208 1161.62 565.875C1160.62 566.458 1159.88 567.167 1159.38 568C1158.88 568.75 1158.62 569.542 1158.62 570.375C1158.62 571.208 1158.88 572.042 1159.38 572.875C1159.88 573.625 1160.62 574.333 1161.62 575C1162.71 575.583 1164.04 575.917 1165.62 576H1201.12C1206.96 576.167 1211.75 577.542 1215.5 580.125C1219.33 582.625 1222.04 585.542 1223.62 588.875C1225.29 592.125 1226.12 595.458 1226.12 598.875C1226.12 602.208 1225.29 605.542 1223.62 608.875C1221.96 612.125 1219.25 615.042 1215.5 617.625C1211.75 620.125 1206.96 621.375 1201.12 621.375H1200.38C1199.88 621.458 1199.38 621.5 1198.88 621.5H1151.62C1149.29 621.5 1147.29 620.708 1145.62 619.125C1144.04 617.458 1143.25 615.458 1143.25 613.125C1143.25 610.792 1144.08 608.833 1145.75 607.25C1147.33 605.583 1149.29 604.75 1151.62 604.75H1201.88C1203.46 604.833 1204.75 604.542 1205.75 603.875C1206.83 603.208 1207.62 602.458 1208.12 601.625C1208.62 600.708 1208.88 599.792 1208.88 598.875C1208.88 598.292 1208.62 597.5 1208.12 596.5C1207.62 595.417 1206.83 594.542 1205.75 593.875C1204.75 593.208 1203.46 592.833 1201.88 592.75H1166.38C1160.54 592.583 1155.71 591.25 1151.88 588.75C1148.12 586.25 1145.42 583.417 1143.75 580.25C1142.17 577 1141.38 573.708 1141.38 570.375C1141.38 567.125 1142.21 563.917 1143.88 560.75C1145.54 557.5 1148.25 554.625 1152 552.125C1155.75 549.625 1160.54 548.292 1166.38 548.125H1167.12C1167.62 548.042 1168.12 548 1168.62 548H1215.62C1217.96 548 1219.92 548.833 1221.5 550.5C1223.17 552.083 1224 554.042 1224 556.375ZM1280 623.875C1275.67 623.875 1271.38 623.375 1267.12 622.375C1262.96 621.375 1258.96 619.917 1255.12 618C1251.29 616 1247.92 613.375 1245 610.125C1242.08 606.875 1240.5 603 1240.25 598.5V593.25V571.875C1240.25 569.542 1241.08 567.625 1242.75 566.125C1244.5 564.542 1246.54 563.75 1248.88 563.75C1253.88 564.167 1256.58 566.875 1257 571.875V577.375V594.625C1257.17 597.208 1258.12 599.375 1259.88 601.125C1261.71 602.792 1263.71 604.125 1265.88 605.125C1268.12 606.125 1270.42 606.875 1272.75 607.375C1275.17 607.875 1277.58 608.125 1280 608.125C1282.42 608.125 1284.79 607.875 1287.12 607.375C1289.54 606.875 1291.83 606.125 1294 605.125C1296.25 604.125 1298.25 602.792 1300 601.125C1301.83 599.375 1302.83 597.208 1303 594.625V577.375V571.875C1303 569.542 1303.83 567.625 1305.5 566.125C1307.25 564.542 1309.29 563.75 1311.62 563.75C1316.62 564.167 1319.38 566.875 1319.88 571.875V593.25V598.5C1319.62 603 1318 606.875 1315 610.125C1312.08 613.375 1308.71 616 1304.88 618C1301.04 619.917 1297 621.375 1292.75 622.375C1288.58 623.375 1284.33 623.875 1280 623.875ZM1352.75 632.625C1352.25 637.625 1349.5 640.333 1344.5 640.75C1342.17 640.75 1340.12 639.958 1338.38 638.375C1336.71 636.875 1335.88 634.958 1335.88 632.625V573.125C1335.96 570.792 1336.83 568.875 1338.5 567.375C1340.17 565.792 1342.17 565 1344.5 565H1397C1404.33 565.25 1409.88 567 1413.62 570.25C1417.38 573.417 1420.08 577.042 1421.75 581.125C1423.42 585.125 1424.25 589.208 1424.25 593.375C1424.25 597.708 1423.42 601.917 1421.75 606C1420.17 610 1417.46 613.625 1413.62 616.875C1409.88 620.042 1405.08 621.667 1399.25 621.75H1367.75C1365.42 621.75 1363.46 620.917 1361.88 619.25C1360.21 617.667 1359.38 615.708 1359.38 613.375C1359.38 611.042 1360.17 609.083 1361.75 607.5C1363.42 605.833 1365.42 605 1367.75 605H1399.75C1401.33 605 1402.71 604.375 1403.88 603.125C1405.04 601.792 1405.88 600.292 1406.38 598.625C1406.96 596.875 1407.25 595.167 1407.25 593.5C1407.25 591.75 1406.96 590.042 1406.38 588.375C1405.88 586.625 1405.04 585.125 1403.88 583.875C1402.71 582.542 1401.33 581.833 1399.75 581.75H1356C1353.83 581.833 1352.75 582.917 1352.75 585V632.625ZM1465.12 621.75C1457.79 621.5 1452.25 619.792 1448.5 616.625C1444.75 613.375 1442.04 609.75 1440.38 605.75C1438.71 601.667 1437.88 597.542 1437.88 593.375C1437.88 589.042 1438.67 584.875 1440.25 580.875C1441.92 576.792 1444.62 573.167 1448.38 570C1452.21 566.75 1457.04 565.083 1462.88 565H1510.38C1512.71 565 1514.67 565.792 1516.25 567.375C1517.92 568.875 1518.75 570.708 1518.75 572.875C1518.75 575.125 1517.92 577.042 1516.25 578.625C1514.67 580.125 1512.71 580.875 1510.38 580.875H1463.62C1461.79 580.875 1460.17 581.5 1458.75 582.75C1457.42 584 1456.42 585.625 1455.75 587.625C1455.17 589.625 1454.88 591.583 1454.88 593.5C1454.88 595.583 1455.17 597.625 1455.75 599.625C1456.42 601.625 1457.42 603.25 1458.75 604.5C1460.17 605.667 1461.79 606.292 1463.62 606.375H1510.38C1512.71 606.375 1514.67 607.125 1516.25 608.625C1517.92 610.125 1518.75 611.917 1518.75 614C1518.75 616.167 1517.92 618 1516.25 619.5C1514.67 621 1512.71 621.75 1510.38 621.75H1465.12ZM1517.25 593.125C1517.25 594.708 1516.54 596.083 1515.12 597.25C1513.88 598.333 1512.29 598.875 1510.38 598.875H1469.5C1467.58 598.875 1465.96 598.333 1464.62 597.25C1463.29 596.083 1462.62 594.708 1462.62 593.125C1462.62 591.625 1463.29 590.292 1464.62 589.125C1465.96 588.042 1467.58 587.5 1469.5 587.5H1510.38C1512.29 587.5 1513.92 588.083 1515.25 589.25C1516.58 590.333 1517.25 591.625 1517.25 593.125ZM1535.75 580.75C1537.33 576.75 1540 573.167 1543.75 570C1547.58 566.75 1552.42 565.083 1558.25 565H1605.25C1607.58 565 1609.54 565.833 1611.12 567.5C1612.79 569.083 1613.62 571.042 1613.62 573.375C1613.62 575.708 1612.79 577.708 1611.12 579.375C1609.54 580.958 1607.58 581.75 1605.25 581.75H1557.75C1556.17 581.75 1554.79 582.417 1553.62 583.75C1552.46 585 1551.54 586.5 1550.88 588.25C1550.29 590 1550 591.667 1550 593.25V615.125C1549.5 620.125 1546.75 622.833 1541.75 623.25C1539.42 623.25 1537.38 622.5 1535.62 621C1533.96 619.417 1533.12 617.458 1533.12 615.125V593.375H1533.25C1533.25 589.042 1534.08 584.833 1535.75 580.75ZM1706.88 615.375C1706.38 620.375 1703.62 623.083 1698.62 623.5C1696.29 623.5 1694.25 622.75 1692.5 621.25C1690.83 619.667 1690 617.708 1690 615.375V556.125C1690.08 553.792 1690.96 551.875 1692.62 550.375C1694.29 548.792 1696.29 548 1698.62 548H1704.75H1720.12H1751C1751.5 548 1752 548.042 1752.5 548.125H1753.25C1759.08 548.292 1763.88 549.625 1767.62 552.125C1771.38 554.625 1774.08 557.5 1775.75 560.75C1777.42 563.917 1778.25 567.125 1778.25 570.375C1778.25 573.708 1777.42 577 1775.75 580.25C1774.17 583.417 1771.46 586.25 1767.62 588.75C1763.88 591.25 1759.08 592.583 1753.25 592.75H1731.25C1731.92 596.917 1733.29 600 1735.38 602C1737.38 604 1739.92 605 1743 605H1770C1772.33 605.083 1774.25 605.958 1775.75 607.625C1777.33 609.292 1778.12 611.292 1778.12 613.625C1778.04 615.875 1777.21 617.792 1775.62 619.375C1774.12 620.875 1772.25 621.667 1770 621.75H1740.75C1734.58 621.833 1729 619.417 1724 614.5C1719 609.583 1715.96 603.75 1714.88 597C1713.38 589.5 1712.62 585.292 1712.62 584.375C1712.62 582.042 1713.42 580.083 1715 578.5C1716.67 576.833 1718.67 576 1721 576H1754C1755.58 575.917 1756.88 575.583 1757.88 575C1758.96 574.333 1759.75 573.625 1760.25 572.875C1760.75 572.042 1761 571.208 1761 570.375C1761 569.542 1760.75 568.75 1760.25 568C1759.75 567.167 1758.96 566.458 1757.88 565.875C1756.88 565.208 1755.58 564.833 1754 564.75H1720.12H1710.12C1707.96 564.833 1706.88 565.917 1706.88 568V615.375ZM1800.38 563.75C1802.62 563.833 1804.54 564.667 1806.12 566.25C1807.71 567.75 1808.54 569.625 1808.62 571.875V615.125C1808.12 620.125 1805.38 622.833 1800.38 623.25C1798.04 623.25 1796 622.5 1794.25 621C1792.58 619.417 1791.75 617.458 1791.75 615.125V571.875C1791.83 569.542 1792.71 567.625 1794.38 566.125C1796.04 564.542 1798.04 563.75 1800.38 563.75ZM1789.88 547.5C1789.88 545.167 1790.88 543.167 1792.88 541.5C1794.88 539.833 1797.29 539 1800.12 539C1802.96 539 1805.38 539.833 1807.38 541.5C1809.38 543.167 1810.38 545.167 1810.38 547.5C1810.38 549.917 1809.38 551.958 1807.38 553.625C1805.38 555.292 1802.96 556.125 1800.12 556.125C1797.29 556.125 1794.88 555.292 1792.88 553.625C1790.88 551.958 1789.88 549.917 1789.88 547.5ZM1849.25 621.75C1841.92 621.5 1836.38 619.792 1832.62 616.625C1828.88 613.375 1826.17 609.75 1824.5 605.75C1822.83 601.667 1822 597.542 1822 593.375C1822 589.042 1822.79 584.875 1824.38 580.875C1826.04 576.792 1828.75 573.167 1832.5 570C1836.33 566.75 1841.17 565.083 1847 565H1894.5C1896.83 565 1898.79 565.833 1900.38 567.5C1902.04 569.083 1902.88 571.042 1902.88 573.375C1902.88 575.708 1902.04 577.708 1900.38 579.375C1898.79 580.958 1896.83 581.75 1894.5 581.75H1846.5C1844.92 581.75 1843.54 582.417 1842.38 583.75C1841.21 585 1840.33 586.5 1839.75 588.25C1839.25 589.917 1839 591.583 1839 593.25C1839 595 1839.25 596.75 1839.75 598.5C1840.33 600.167 1841.21 601.667 1842.38 603C1843.54 604.25 1844.92 604.917 1846.5 605H1894.5C1896.83 605 1898.79 605.833 1900.38 607.5C1902.04 609.083 1902.88 611.042 1902.88 613.375C1902.88 615.708 1902.04 617.667 1900.38 619.25C1898.79 620.917 1896.83 621.75 1894.5 621.75H1849.25ZM1924.62 546C1926.88 546.083 1928.79 546.917 1930.38 548.5C1931.96 550 1932.79 551.875 1932.88 554.125V565H1971.62C1977.46 565.083 1982.25 566.75 1986 570C1989.83 573.167 1992.54 576.75 1994.12 580.75C1995.79 584.833 1996.62 589.042 1996.62 593.375H1996.75V615.125C1996.75 617.458 1995.88 619.417 1994.12 621C1992.46 622.5 1990.46 623.25 1988.12 623.25C1983.12 622.833 1980.38 620.125 1979.88 615.125V593.25C1979.88 591.667 1979.54 590 1978.88 588.25C1978.29 586.5 1977.42 585 1976.25 583.75C1975.08 582.417 1973.71 581.75 1972.12 581.75H1932.88V615.375C1932.38 620.375 1929.62 623.083 1924.62 623.5C1922.29 623.5 1920.25 622.75 1918.5 621.25C1916.83 619.667 1916 617.708 1916 615.375V554.125C1916.08 551.792 1916.96 549.875 1918.62 548.375C1920.29 546.792 1922.29 546 1924.62 546ZM2157.38 556.375C2157.38 558.708 2156.54 560.667 2154.88 562.25C2153.29 563.917 2151.33 564.75 2149 564.75H2099C2097.42 564.833 2096.08 565.208 2095 565.875C2094 566.458 2093.25 567.167 2092.75 568C2092.25 568.75 2092 569.542 2092 570.375C2092 571.208 2092.25 572.042 2092.75 572.875C2093.25 573.625 2094 574.333 2095 575C2096.08 575.583 2097.42 575.917 2099 576H2134.5C2140.33 576.167 2145.12 577.542 2148.88 580.125C2152.71 582.625 2155.42 585.542 2157 588.875C2158.67 592.125 2159.5 595.458 2159.5 598.875C2159.5 602.208 2158.67 605.542 2157 608.875C2155.33 612.125 2152.62 615.042 2148.88 617.625C2145.12 620.125 2140.33 621.375 2134.5 621.375H2133.75C2133.25 621.458 2132.75 621.5 2132.25 621.5H2085C2082.67 621.5 2080.67 620.708 2079 619.125C2077.42 617.458 2076.62 615.458 2076.62 613.125C2076.62 610.792 2077.46 608.833 2079.12 607.25C2080.71 605.583 2082.67 604.75 2085 604.75H2135.25C2136.83 604.833 2138.12 604.542 2139.12 603.875C2140.21 603.208 2141 602.458 2141.5 601.625C2142 600.708 2142.25 599.792 2142.25 598.875C2142.25 598.292 2142 597.5 2141.5 596.5C2141 595.417 2140.21 594.542 2139.12 593.875C2138.12 593.208 2136.83 592.833 2135.25 592.75H2099.75C2093.92 592.583 2089.08 591.25 2085.25 588.75C2081.5 586.25 2078.79 583.417 2077.12 580.25C2075.54 577 2074.75 573.708 2074.75 570.375C2074.75 567.125 2075.58 563.917 2077.25 560.75C2078.92 557.5 2081.62 554.625 2085.38 552.125C2089.12 549.625 2093.92 548.292 2099.75 548.125H2100.5C2101 548.042 2101.5 548 2102 548H2149C2151.33 548 2153.29 548.833 2154.88 550.5C2156.54 552.083 2157.38 554.042 2157.38 556.375ZM2182.12 546C2184.38 546.083 2186.29 546.917 2187.88 548.5C2189.46 550 2190.29 551.875 2190.38 554.125V565H2229.12C2234.96 565.083 2239.75 566.75 2243.5 570C2247.33 573.167 2250.04 576.75 2251.62 580.75C2253.29 584.833 2254.12 589.042 2254.12 593.375H2254.25V615.125C2254.25 617.458 2253.38 619.417 2251.62 621C2249.96 622.5 2247.96 623.25 2245.62 623.25C2240.62 622.833 2237.88 620.125 2237.38 615.125V593.25C2237.38 591.667 2237.04 590 2236.38 588.25C2235.79 586.5 2234.92 585 2233.75 583.75C2232.58 582.417 2231.21 581.75 2229.62 581.75H2190.38V615.375C2189.88 620.375 2187.12 623.083 2182.12 623.5C2179.79 623.5 2177.75 622.75 2176 621.25C2174.33 619.667 2173.5 617.708 2173.5 615.375V554.125C2173.58 551.792 2174.46 549.875 2176.12 548.375C2177.79 546.792 2179.79 546 2182.12 546ZM2278.62 563.75C2280.88 563.833 2282.79 564.667 2284.38 566.25C2285.96 567.75 2286.79 569.625 2286.88 571.875V615.125C2286.38 620.125 2283.62 622.833 2278.62 623.25C2276.29 623.25 2274.25 622.5 2272.5 621C2270.83 619.417 2270 617.458 2270 615.125V571.875C2270.08 569.542 2270.96 567.625 2272.62 566.125C2274.29 564.542 2276.29 563.75 2278.62 563.75ZM2268.12 547.5C2268.12 545.167 2269.12 543.167 2271.12 541.5C2273.12 539.833 2275.54 539 2278.38 539C2281.21 539 2283.62 539.833 2285.62 541.5C2287.62 543.167 2288.62 545.167 2288.62 547.5C2288.62 549.917 2287.62 551.958 2285.62 553.625C2283.62 555.292 2281.21 556.125 2278.38 556.125C2275.54 556.125 2273.12 555.292 2271.12 553.625C2269.12 551.958 2268.12 549.917 2268.12 547.5ZM2342 563.125C2346.33 563.125 2350.58 563.625 2354.75 564.625C2359 565.625 2363.04 567.125 2366.88 569.125C2370.71 571.042 2374.08 573.625 2377 576.875C2380 580.125 2381.62 584 2381.88 588.5V593.75V615.125C2381.38 620.125 2378.62 622.833 2373.62 623.25C2371.29 623.25 2369.25 622.5 2367.5 621C2365.83 619.417 2365 617.458 2365 615.125V609.625V592.375C2364.83 589.792 2363.83 587.667 2362 586C2360.25 584.25 2358.25 582.875 2356 581.875C2353.83 580.875 2351.54 580.125 2349.12 579.625C2346.79 579.125 2344.42 578.875 2342 578.875C2339.58 578.875 2337.17 579.125 2334.75 579.625C2332.42 580.125 2330.12 580.875 2327.88 581.875C2325.71 582.875 2323.71 584.25 2321.88 586C2320.12 587.667 2319.17 589.792 2319 592.375V609.625V615.125C2318.58 620.125 2315.88 622.833 2310.88 623.25C2308.54 623.25 2306.5 622.5 2304.75 621C2303.08 619.417 2302.25 617.458 2302.25 615.125V593.75V588.5C2302.5 584 2304.08 580.125 2307 576.875C2309.92 573.625 2313.29 571.042 2317.12 569.125C2320.96 567.125 2324.96 565.625 2329.12 564.625C2333.38 563.625 2337.67 563.125 2342 563.125ZM2423.38 621.75C2416.04 621.5 2410.5 619.792 2406.75 616.625C2403 613.375 2400.29 609.75 2398.62 605.75C2396.96 601.667 2396.12 597.542 2396.12 593.375C2396.12 589.042 2396.92 584.875 2398.5 580.875C2400.17 576.792 2402.88 573.167 2406.62 570C2410.46 566.75 2415.29 565.083 2421.12 565H2468.62C2470.96 565 2472.92 565.792 2474.5 567.375C2476.17 568.875 2477 570.708 2477 572.875C2477 575.125 2476.17 577.042 2474.5 578.625C2472.92 580.125 2470.96 580.875 2468.62 580.875H2421.88C2420.04 580.875 2418.42 581.5 2417 582.75C2415.67 584 2414.67 585.625 2414 587.625C2413.42 589.625 2413.12 591.583 2413.12 593.5C2413.12 595.583 2413.42 597.625 2414 599.625C2414.67 601.625 2415.67 603.25 2417 604.5C2418.42 605.667 2420.04 606.292 2421.88 606.375H2468.62C2470.96 606.375 2472.92 607.125 2474.5 608.625C2476.17 610.125 2477 611.917 2477 614C2477 616.167 2476.17 618 2474.5 619.5C2472.92 621 2470.96 621.75 2468.62 621.75H2423.38ZM2475.5 593.125C2475.5 594.708 2474.79 596.083 2473.38 597.25C2472.12 598.333 2470.54 598.875 2468.62 598.875H2427.75C2425.83 598.875 2424.21 598.333 2422.88 597.25C2421.54 596.083 2420.88 594.708 2420.88 593.125C2420.88 591.625 2421.54 590.292 2422.88 589.125C2424.21 588.042 2425.83 587.5 2427.75 587.5H2468.62C2470.54 587.5 2472.17 588.083 2473.5 589.25C2474.83 590.333 2475.5 591.625 2475.5 593.125Z" fill="#FA9900"/>
</svg>
